<mxfile host="app.diagrams.net" modified="2022-12-04T12:25:49.339Z" agent="5.0 (Macintosh; Intel Mac OS X 10_15_7) AppleWebKit/537.36 (KHTML, like Gecko) Chrome/106.0.0.0 Safari/537.36" etag="HEAko85GhviNT6jLXlR8" version="20.5.3" type="github">
  <diagram id="1FowIULAXSjEy72_O8D5" name="第 1 页">
    <mxGraphModel dx="1426" dy="801" grid="1" gridSize="10" guides="1" tooltips="1" connect="1" arrows="1" fold="1" page="1" pageScale="1" pageWidth="2339" pageHeight="3300" math="0" shadow="0">
      <root>
        <mxCell id="0" />
        <mxCell id="1" parent="0" />
        <mxCell id="H2H-OK5_0r2s_BHLptNz-1" value="" style="edgeStyle=orthogonalEdgeStyle;rounded=0;orthogonalLoop=1;jettySize=auto;html=1;entryX=0.5;entryY=0;entryDx=0;entryDy=0;" edge="1" parent="1" source="H2H-OK5_0r2s_BHLptNz-2" target="H2H-OK5_0r2s_BHLptNz-7">
          <mxGeometry relative="1" as="geometry">
            <mxPoint x="460" y="200" as="targetPoint" />
          </mxGeometry>
        </mxCell>
        <mxCell id="H2H-OK5_0r2s_BHLptNz-2" value="record" style="ellipse;whiteSpace=wrap;html=1;rounded=1;" vertex="1" parent="1">
          <mxGeometry x="399.95" y="80" width="120" height="50" as="geometry" />
        </mxCell>
        <mxCell id="H2H-OK5_0r2s_BHLptNz-3" value="" style="edgeStyle=orthogonalEdgeStyle;rounded=0;orthogonalLoop=1;jettySize=auto;html=1;exitX=0.5;exitY=1;exitDx=0;exitDy=0;entryX=0.5;entryY=0;entryDx=0;entryDy=0;" edge="1" parent="1" source="H2H-OK5_0r2s_BHLptNz-7" target="H2H-OK5_0r2s_BHLptNz-9">
          <mxGeometry relative="1" as="geometry">
            <mxPoint x="310.0026315789475" y="400" as="targetPoint" />
          </mxGeometry>
        </mxCell>
        <mxCell id="H2H-OK5_0r2s_BHLptNz-4" value="有" style="edgeLabel;html=1;align=center;verticalAlign=middle;resizable=0;points=[];" vertex="1" connectable="0" parent="H2H-OK5_0r2s_BHLptNz-3">
          <mxGeometry x="-0.0475" y="1" relative="1" as="geometry">
            <mxPoint as="offset" />
          </mxGeometry>
        </mxCell>
        <mxCell id="H2H-OK5_0r2s_BHLptNz-5" value="" style="edgeStyle=orthogonalEdgeStyle;rounded=0;orthogonalLoop=1;jettySize=auto;html=1;exitX=0.5;exitY=1;exitDx=0;exitDy=0;" edge="1" parent="1" source="H2H-OK5_0r2s_BHLptNz-7" target="H2H-OK5_0r2s_BHLptNz-11">
          <mxGeometry relative="1" as="geometry" />
        </mxCell>
        <mxCell id="H2H-OK5_0r2s_BHLptNz-6" value="无" style="edgeLabel;html=1;align=center;verticalAlign=middle;resizable=0;points=[];" vertex="1" connectable="0" parent="H2H-OK5_0r2s_BHLptNz-5">
          <mxGeometry x="-0.0642" y="1" relative="1" as="geometry">
            <mxPoint as="offset" />
          </mxGeometry>
        </mxCell>
        <mxCell id="H2H-OK5_0r2s_BHLptNz-7" value="获取缓存" style="rhombus;whiteSpace=wrap;html=1;rounded=1;" vertex="1" parent="1">
          <mxGeometry x="419.95" y="195" width="80" height="80" as="geometry" />
        </mxCell>
        <mxCell id="H2H-OK5_0r2s_BHLptNz-8" value="" style="edgeStyle=orthogonalEdgeStyle;rounded=0;orthogonalLoop=1;jettySize=auto;html=1;fontSize=12;fontColor=#000000;exitX=0.5;exitY=1;exitDx=0;exitDy=0;" edge="1" parent="1" source="H2H-OK5_0r2s_BHLptNz-9">
          <mxGeometry relative="1" as="geometry">
            <mxPoint x="310.0026315789475" y="460" as="sourcePoint" />
            <mxPoint x="460.0526315789475" y="580" as="targetPoint" />
          </mxGeometry>
        </mxCell>
        <mxCell id="H2H-OK5_0r2s_BHLptNz-9" value="&lt;div style=&quot;background-color: rgb(255, 255, 255); font-family: &amp;quot;Fira Code&amp;quot;, Menlo, Monaco, &amp;quot;Courier New&amp;quot;, monospace, &amp;quot;Meslo LG S DZ for Powerline&amp;quot;, Menlo, Monaco, &amp;quot;Courier New&amp;quot;, monospace; font-size: 12px; line-height: 21px;&quot;&gt;&lt;span style=&quot;font-size: 12px;&quot;&gt;tagConfigId=&lt;/span&gt;&lt;/div&gt;&lt;font face=&quot;Fira Code, Menlo, Monaco, Courier New, monospace, Meslo LG S DZ for Powerline, Menlo, Monaco, Courier New, monospace&quot; style=&quot;font-size: 12px;&quot;&gt;&lt;span style=&quot;font-size: 12px;&quot;&gt;&lt;span style=&quot;font-size: 12px;&quot;&gt;relationTagIdList[itemId]&lt;/span&gt;&lt;/span&gt;&lt;/font&gt;" style="whiteSpace=wrap;html=1;rounded=1;fontStyle=0;fontSize=12;fontColor=#000000;" vertex="1" parent="1">
          <mxGeometry x="240" y="400" width="200" height="60" as="geometry" />
        </mxCell>
        <mxCell id="H2H-OK5_0r2s_BHLptNz-10" style="edgeStyle=orthogonalEdgeStyle;rounded=0;orthogonalLoop=1;jettySize=auto;html=1;exitX=0.5;exitY=1;exitDx=0;exitDy=0;entryX=0.5;entryY=0;entryDx=0;entryDy=0;fontSize=12;fontColor=#000000;" edge="1" parent="1" source="H2H-OK5_0r2s_BHLptNz-11" target="H2H-OK5_0r2s_BHLptNz-16">
          <mxGeometry relative="1" as="geometry">
            <mxPoint x="459.95000000000005" y="580" as="targetPoint" />
          </mxGeometry>
        </mxCell>
        <mxCell id="H2H-OK5_0r2s_BHLptNz-11" value="&lt;span style=&quot;font-family: &amp;quot;Fira Code&amp;quot;, Menlo, Monaco, &amp;quot;Courier New&amp;quot;, monospace, &amp;quot;Meslo LG S DZ for Powerline&amp;quot;, Menlo, Monaco, &amp;quot;Courier New&amp;quot;, monospace; background-color: rgb(255, 255, 255);&quot;&gt;tagConfigId=&lt;br&gt;&lt;/span&gt;record.TAG_CONFIG_ID" style="whiteSpace=wrap;html=1;rounded=1;" vertex="1" parent="1">
          <mxGeometry x="480" y="400" width="200" height="60" as="geometry" />
        </mxCell>
        <mxCell id="H2H-OK5_0r2s_BHLptNz-12" style="edgeStyle=orthogonalEdgeStyle;rounded=0;orthogonalLoop=1;jettySize=auto;html=1;exitX=0;exitY=0.5;exitDx=0;exitDy=0;entryX=0.5;entryY=1;entryDx=0;entryDy=0;fontSize=12;fontColor=#000000;" edge="1" parent="1" source="H2H-OK5_0r2s_BHLptNz-16" target="H2H-OK5_0r2s_BHLptNz-15">
          <mxGeometry relative="1" as="geometry">
            <mxPoint x="399.95000000000005" y="610" as="sourcePoint" />
          </mxGeometry>
        </mxCell>
        <mxCell id="H2H-OK5_0r2s_BHLptNz-13" value="标记" style="edgeLabel;html=1;align=center;verticalAlign=middle;resizable=0;points=[];fontSize=12;fontColor=#000000;" vertex="1" connectable="0" parent="H2H-OK5_0r2s_BHLptNz-12">
          <mxGeometry x="-0.5182" y="2" relative="1" as="geometry">
            <mxPoint as="offset" />
          </mxGeometry>
        </mxCell>
        <mxCell id="H2H-OK5_0r2s_BHLptNz-14" style="edgeStyle=orthogonalEdgeStyle;rounded=0;orthogonalLoop=1;jettySize=auto;html=1;exitX=1;exitY=0.5;exitDx=0;exitDy=0;entryX=0;entryY=0.5;entryDx=0;entryDy=0;fontSize=12;fontColor=#000000;" edge="1" parent="1" source="H2H-OK5_0r2s_BHLptNz-15" target="H2H-OK5_0r2s_BHLptNz-7">
          <mxGeometry relative="1" as="geometry" />
        </mxCell>
        <mxCell id="H2H-OK5_0r2s_BHLptNz-15" value="&lt;div style=&quot;background-color: rgb(255, 255, 255); font-family: &amp;quot;Fira Code&amp;quot;, Menlo, Monaco, &amp;quot;Courier New&amp;quot;, monospace, &amp;quot;Meslo LG S DZ for Powerline&amp;quot;, Menlo, Monaco, &amp;quot;Courier New&amp;quot;, monospace; font-size: 12px; line-height: 21px;&quot;&gt;mobx&lt;/div&gt;&lt;div style=&quot;background-color: rgb(255, 255, 255); font-family: &amp;quot;Fira Code&amp;quot;, Menlo, Monaco, &amp;quot;Courier New&amp;quot;, monospace, &amp;quot;Meslo LG S DZ for Powerline&amp;quot;, Menlo, Monaco, &amp;quot;Courier New&amp;quot;, monospace; font-size: 12px; line-height: 21px;&quot;&gt;&lt;span style=&quot;background-color: rgb(248, 249, 250);&quot;&gt;relationTagIdList&lt;/span&gt;&lt;br&gt;&lt;/div&gt;" style="whiteSpace=wrap;html=1;rounded=1;fontStyle=0;fontSize=12;fontColor=#000000;" vertex="1" parent="1">
          <mxGeometry x="70" y="205" width="160" height="60" as="geometry" />
        </mxCell>
        <mxCell id="H2H-OK5_0r2s_BHLptNz-16" value="渲染标旗" style="ellipse;whiteSpace=wrap;html=1;rounded=1;" vertex="1" parent="1">
          <mxGeometry x="399.95" y="580" width="120" height="50" as="geometry" />
        </mxCell>
      </root>
    </mxGraphModel>
  </diagram>
</mxfile>
